<svg width="76" height="76" fill="none" xmlns="http://www.w3.org/2000/svg"><rect width="76" height="76" rx="20" fill="#254152"/><path fill-rule="evenodd" clip-rule="evenodd" d="M47 33.5c0 4.193-2.87 7.704-6.75 8.705V50h4.5a.75.75 0 110 1.5h-13.5a.75.75 0 110-1.5h4.5v-7.795C31.87 41.204 29 37.693 29 33.5a5.25 5.25 0 01-5.25-5.25v-1.5a.75.75 0 01.75-.75H29v-.75A2.25 2.25 0 0026.75 23a.75.75 0 110-1.5h22.5a.75.75 0 110 1.5A2.25 2.25 0 0047 25.25V26h4.5a.75.75 0 01.75.75v1.5c0 2.9-2.35 5.25-5.25 5.25zM37.25 50h1.5v-7.538a8.838 8.838 0 01-.75.038c-.254 0-.502-.017-.75-.038V50zm-12-22.5v.75A3.75 3.75 0 0029 32v-4.5h-3.75zm4.483-4.5c.474.628.767 1.402.767 2.25v8.25a7.5 7.5 0 1015 0v-8.25c0-.848.292-1.622.767-2.25H29.733zm21.017 4.5H47V32a3.75 3.75 0 003.75-3.75v-.75zM29 53h18a.75.75 0 110 1.5H29a.75.75 0 110-1.5z" fill="#fff"/></svg>