<svg width="76" height="76" fill="none" xmlns="http://www.w3.org/2000/svg"><rect width="76" height="76" rx="20" fill="#254152"/><path fill-rule="evenodd" clip-rule="evenodd" d="M47.744 35.362v3.015l-2.614 1.508-1.507 2.612h-.383V53.75l-.001.008a.727.727 0 01-.741.74l-.008.002a.733.733 0 01-.581-.296l-3.919-3.919-3.919 3.919a.732.732 0 01-.58.296l-.008-.002a.728.728 0 01-.741-.74l-.002-.008V42.5l.001-.003h-.38l-1.51-2.611-2.612-1.509v-3.015l-1.509-2.611 1.509-2.612V27.12l2.613-1.51 1.509-2.609h3.019l2.61-1.509 2.612 1.51h3.02l1.507 2.608 2.614 1.51v3.017l1.507 2.613-1.506 2.611zM34.24 42.5v9.464l3.143-3.142c.024-.036.04-.076.071-.108a.73.73 0 01.536-.211.731.731 0 01.536.21c.032.033.047.073.072.109l3.142 3.142V42.5l.001-.003h-1.138l-2.613 1.51-2.61-1.51h-1.14v.003zm12-11.961v-2.552l-2.21-1.277-1.275-2.208H40.2l-2.208-1.275-2.207 1.275H33.23l-1.276 2.207-2.212 1.277v2.553l-1.275 2.212 1.276 2.21v2.55l2.211 1.276 1.276 2.21h2.554l2.207 1.275 2.209-1.276h2.553l1.275-2.209 2.212-1.276v-2.55l1.274-2.21-1.274-2.212z" fill="#fff"/></svg>