<svg width="76" height="76" fill="none" xmlns="http://www.w3.org/2000/svg"><rect width="76" height="76" rx="20" fill="#254152"/><path fill-rule="evenodd" clip-rule="evenodd" d="M48.5 39.5c-.036 0-.07-.008-.106-.01A11.238 11.238 0 0144 46.983v5.266a3 3 0 01-3 3h-7.5a3 3 0 01-3-3v-5.266C27.772 44.931 26 41.676 26 38c0-3.677 1.772-6.932 4.5-8.984V23.75a3 3 0 013-3H41a3 3 0 013 3v5.266a11.236 11.236 0 014.394 7.495c.036-.003.07-.011.106-.011a1.5 1.5 0 010 3zM32 52.25a1.5 1.5 0 001.5 1.5H41a1.5 1.5 0 001.5-1.5v-4.303a11.203 11.203 0 01-5.25 1.303A11.21 11.21 0 0132 47.947v4.303zm10.5-28.5a1.5 1.5 0 00-1.5-1.5h-7.5a1.5 1.5 0 00-1.5 1.5v4.303a11.194 11.194 0 015.25-1.303c1.897 0 3.682.474 5.25 1.303V23.75zm-5.25 4.5A9.75 9.75 0 0027.5 38a9.75 9.75 0 009.75 9.75A9.75 9.75 0 0047 38a9.75 9.75 0 00-9.75-9.75zM38 40.112v4.638a.75.75 0 11-1.5 0v-4.638A2.244 2.244 0 0135 38c0-.353.089-.682.234-.981l-2.27-2.27A.733.733 0 0134 33.715l2.27 2.27a2.23 2.23 0 01.98-.234A2.25 2.25 0 0139.5 38c0 .979-.628 1.802-1.5 2.112zm-.75-2.862a.75.75 0 10-.001 1.499.75.75 0 00.001-1.499z" fill="#fff"/></svg>