<svg width="76" height="76" fill="none" xmlns="http://www.w3.org/2000/svg"><rect width="76" height="76" rx="20" fill="#254152"/><path fill-rule="evenodd" clip-rule="evenodd" d="M55.25 50a3.75 3.75 0 01-3.75 3.75h-27A3.75 3.75 0 0120.75 50V28.25a3 3 0 013-3h15.128l6.075-2.2c.384-.14.81.058.95.441l.64 1.759h2.707a3 3 0 013 3v1.5a3 3 0 013 3V50zm-31.5-23.25a1.5 1.5 0 000 3h2.726c.01-.004.015-.012.025-.016l8.236-2.984H23.75zm21.809.136l-.797-2.193-1.539.557h.002l-4.135 1.5h-.008l-8.279 3h15.796l-1.04-2.864zm5.191 1.364a1.5 1.5 0 00-1.5-1.5h-2.162l1.09 3h2.572v-1.5zm1.5 3h-28.5a2.966 2.966 0 01-1.5-.416V50a2.25 2.25 0 002.25 2.25h27A2.25 2.25 0 0053.75 50v-5.25h-3a3 3 0 010-6h3v-6a1.5 1.5 0 00-1.5-1.5zm1.5 12v-3h-3a1.5 1.5 0 000 3h3zm-3-2.25h1.5v1.5h-1.5V41z" fill="#fff"/></svg>