<svg width="24" height="24" fill="none" xmlns="http://www.w3.org/2000/svg"><path d="M12 .592c6.444 0 11.669 5.225 11.669 11.669 0 6.444-5.225 11.668-11.669 11.668C5.556 23.93.332 18.705.332 12.261.332 5.817 5.556.592 12 .592zm0 1.75c-5.478 0-9.918 4.441-9.918 9.919 0 5.478 4.44 9.918 9.918 9.918 5.478 0 9.919-4.44 9.919-9.918 0-5.478-4.441-9.919-9.919-9.919zm-.004 8.168c.443 0 .81.329.867.755l.008.12.005 6.418a.875.875 0 01-1.742.12l-.008-.12-.005-6.418c0-.483.391-.875.875-.875zM12 6.43a1.165 1.165 0 110 2.33 1.165 1.165 0 010-2.33z" fill="#2CA6DE"/></svg>