<svg width="52" height="62" fill="none" xmlns="http://www.w3.org/2000/svg"><path d="M14.959 61.313a.88.88 0 01-.875-.875.872.872 0 01.148-.486.93.93 0 01.24-.242.875.875 0 01.316-.13.877.877 0 011.046.858.883.883 0 01-.54.807.83.83 0 01-.335.068zm35.954-37.966h-2.771a.874.874 0 110-1.75h2.77a.874.874 0 110 1.75zm0 6.406h-2.771a.874.874 0 110-1.75h2.77a.874.874 0 110 1.75zm0 6.407h-2.771a.874.874 0 110-1.75h2.77a.874.874 0 110 1.75zm0 6.405h-2.771a.874.874 0 110-1.75h2.77a.874.874 0 110 1.75zm0 6.405h-2.771a.874.874 0 110-1.75h2.77a.874.874 0 110 1.75zm0 6.407h-2.771a.874.874 0 110-1.75h2.77a.874.874 0 110 1.75zm-9.529-3.593a.874.874 0 01-.875-.875V37.125L27.602 50.034h9.331a.874.874 0 110 1.75H25.49a.876.876 0 01-.619-1.494l15.896-15.895a.876.876 0 011.493.619v15.895a.875.875 0 01-.875.875z" fill="#254152"/><path d="M50.913 61.313H17.816a.874.874 0 110-1.75h32.222V14.12L4.597 59.563h7.362a.874.874 0 110 1.75H2.484a.876.876 0 01-.619-1.494l48.43-48.429a.876.876 0 011.493.619v48.429a.874.874 0 01-.875.875zm-9.16-48.61a.877.877 0 01-.791-1.25.873.873 0 011.427-.284l.011.011a.876.876 0 010 1.238l-.028.028a.872.872 0 01-.619.257z" fill="#254152"/><path d="M6.643 46.67c-.93 0-1.859-.355-2.566-1.062l-2.728-2.727a3.633 3.633 0 010-5.133l2.43-2.43a.876.876 0 011.238 1.238l-2.43 2.43a1.882 1.882 0 000 2.657l2.727 2.727a1.882 1.882 0 002.658 0L39.05 13.293a3.258 3.258 0 01-2.196-3.189 3.262 3.262 0 01-3.19-2.196l-26.19 26.19a.876.876 0 01-1.238-1.237L34.093 5.004a.874.874 0 011.365 1.074 1.495 1.495 0 00.224 1.839c.3.3.699.457 1.122.438a1.73 1.73 0 011.799 1.799c-.017.425.138.823.439 1.124.49.49 1.245.582 1.836.225a.875.875 0 011.071 1.367L9.21 45.608a3.617 3.617 0 01-2.566 1.061z" fill="#254152"/><path d="M7.71 40.123a.876.876 0 01-.619-1.494l24.9-24.9a.876.876 0 011.237 1.238l-24.9 24.9a.873.873 0 01-.618.256zM34.692 13.14a.867.867 0 01-.333-.067.827.827 0 01-.285-.188.885.885 0 01-.24-.79.91.91 0 01.13-.315.866.866 0 01.557-.371.879.879 0 011.03.686.88.88 0 01-.24.79.88.88 0 01-.619.256z" fill="#254152"/><path d="M6.643 46.746a3.44 3.44 0 01-2.437-1.008L1.22 42.752a3.45 3.45 0 010-4.874l2.56-2.56a.876.876 0 011.237 0l6.623 6.623a.876.876 0 010 1.237l-2.56 2.56a3.435 3.435 0 01-2.437 1.008zm-1.2-2.246a1.698 1.698 0 002.4 0l1.94-1.942-5.385-5.385-1.94 1.942a1.698 1.698 0 000 2.398L5.442 44.5zM40.1 13.467c-.84 0-1.668-.326-2.295-.954a3.258 3.258 0 01-.95-2.41 3.265 3.265 0 01-2.41-.95 3.242 3.242 0 01-.343-4.195 1.716 1.716 0 011.051-.68l9.948-3.54a.878.878 0 011.119 1.119l-3.543 9.952a1.709 1.709 0 01-.146.42 1.722 1.722 0 01-.521.62 3.272 3.272 0 01-1.909.617zm-3.224-5.114a1.733 1.733 0 011.727 1.8c-.017.425.138.823.44 1.124.49.49 1.244.583 1.835.225l.09-.057a.86.86 0 01.04-.159l2.947-8.28-8.282 2.947a.858.858 0 01-.157.04l-.059.09a1.494 1.494 0 00.225 1.835c.3.3.7.457 1.123.44.023-.005.047-.005.07-.005z" fill="#254152"/><path d="M43.578 7.543a.872.872 0 01-.618-.256l-3.29-3.289a.876.876 0 011.237-1.237l3.29 3.289a.876.876 0 01-.62 1.493z" fill="#254152"/></svg>