<svg width="48" height="62" fill="none" xmlns="http://www.w3.org/2000/svg"><path d="M24.457 52.533a.874.874 0 110-1.75c3.456 0 6.705-1.346 9.15-3.791l6.98-6.98a3.569 3.569 0 000-5.041l-2.249-2.249a.876.876 0 011.238-1.238l2.248 2.25a5.32 5.32 0 010 7.515l-6.98 6.98a14.598 14.598 0 01-10.387 4.304zm12.388-21.668a.882.882 0 01-.728-.388.883.883 0 01.109-1.105.885.885 0 011.105-.11.93.93 0 01.241.242.868.868 0 01.13.315.87.87 0 01-.857 1.046z" fill="#254152"/><path d="M21.417 55.57a.872.872 0 01-.619-.256l-9.604-9.604a.876.876 0 010-1.237l3.314-3.314v-6.345c0-.682.266-1.324.749-1.806l5.625-5.625a2.538 2.538 0 011.806-.749h2.455l1.034-1.034a5.32 5.32 0 017.516 0l1.866 1.867a.876.876 0 01-1.237 1.237l-1.866-1.866a3.567 3.567 0 00-4.88-.151l-.01.01a2.452 2.452 0 00-.153.142l-1.29 1.29a.875.875 0 01-.619.256h-2.816a.798.798 0 00-.569.237l-5.625 5.625a.798.798 0 00-.236.568v6.707a.875.875 0 01-.256.618l-2.951 2.952 8.985 8.985a.876.876 0 01-.62 1.493z" fill="#254152"/><path d="M19.45 61.315a.872.872 0 01-.618-.256L5.172 47.4a.876.876 0 010-1.237l3.857-3.856a.876.876 0 011.238 0l13.658 13.658a.876.876 0 010 1.238L20.07 61.06a.876.876 0 01-.619.255zM7.03 46.783l12.42 12.42 2.62-2.618L9.647 44.164l-2.619 2.619zm.385-29.12a.883.883 0 01-.619-.256.88.88 0 01-.256-.619c0-.23.094-.456.256-.619a.883.883 0 01.619-.256.88.88 0 01.619.256.883.883 0 01.256.62c0 .23-.094.455-.256.618a.88.88 0 01-.619.256zm6.584 12.191a.871.871 0 01-.619-.256l-2.719-2.719a.876.876 0 010-1.237L21.15 15.154a.876.876 0 011.237 0l2.719 2.72a.876.876 0 010 1.237L14.617 29.598a.872.872 0 01-.618.256zm-1.483-3.593l1.482 1.48 9.25-9.25-1.482-1.48-9.25 9.25z" fill="#254152"/><path d="M19.716 30.662a.87.87 0 01-.597-.237L15.75 27.27a.877.877 0 01-.02-1.256l5.79-5.79a.876.876 0 011.238 1.237l-5.152 5.151 2.091 1.96 1.187-1.187a2.538 2.538 0 011.806-.749h2.455l.631-.631-2.266-2.42a.875.875 0 011.276-1.196l2.851 3.045a.872.872 0 01-.07 1.262 2.454 2.454 0 00-.152.143l-1.29 1.29a.875.875 0 01-.619.256H22.69a.798.798 0 00-.569.236l-1.785 1.785a.876.876 0 01-.62.256zm23.191 21.715a.87.87 0 01-.597-.236l-3.998-3.744a.874.874 0 111.197-1.276l3.38 3.164 2.903-2.902-4.884-5.216-3.875 3.875a.876.876 0 01-1.237-1.238l4.514-4.514a.873.873 0 011.256.02l6.08 6.495a.874.874 0 01-.02 1.217l-4.101 4.1a.866.866 0 01-.618.255zM3.768 34.645a.876.876 0 01-.62-.258l-.027-.027c-4.003-4.002-4.003-10.515.001-14.517l1.716-1.717a.876.876 0 011.238 1.238L4.36 21.08c-3.122 3.121-3.31 8.081-.563 11.424l19.515-19.515-5.431-5.432-7.764 7.764a.876.876 0 01-1.237-1.237L17.262 5.7a.876.876 0 011.238 0l6.668 6.669a.875.875 0 010 1.238l-20.78 20.78a.875.875 0 01-.62.257z" fill="#254152"/><path d="M27.529 16.841a.875.875 0 01-.62-.256L14.653 4.328a.876.876 0 010-1.238l1.122-1.121a4.39 4.39 0 016.202 0l7.293 7.293a4.357 4.357 0 011.285 3.1 4.357 4.357 0 01-1.285 3.102l-1.122 1.121a.875.875 0 01-.618.256zM16.509 3.71l11.02 11.02.502-.502a2.62 2.62 0 00.773-1.864c0-.704-.274-1.367-.773-1.864L20.74 3.207a2.639 2.639 0 00-3.728 0l-.502.502z" fill="#254152"/></svg>