<svg width="76" height="76" fill="none" xmlns="http://www.w3.org/2000/svg"><rect width="76" height="76" rx="20" fill="#254152"/><path d="M31.79 55.05a.495.495 0 01-.454-.68.495.495 0 01.266-.266.482.482 0 01.377 0 .498.498 0 01.22.18.502.502 0 01.083.274.497.497 0 01-.396.483.495.495 0 01-.096.01zm20.224-21.356h-1.559a.492.492 0 110-.984h1.559a.492.492 0 110 .984zm0 3.604h-1.559a.492.492 0 110-.985h1.559a.492.492 0 110 .985zm0 3.603h-1.559a.492.492 0 110-.984h1.559a.492.492 0 110 .984zm0 3.603h-1.559a.492.492 0 110-.984h1.559a.492.492 0 110 .984zm0 3.603h-1.559a.492.492 0 110-.984h1.559a.492.492 0 110 .984zm0 3.603h-1.559a.492.492 0 110-.983h1.559a.492.492 0 110 .984zm-5.36-2.019a.492.492 0 01-.492-.492v-7.754l-7.26 7.262h5.248a.492.492 0 110 .984h-6.437a.494.494 0 01-.348-.84l8.94-8.941a.493.493 0 01.841.348v8.94c0 .272-.22.493-.492.493z" fill="#fff"/><path d="M52.014 55.05H33.396a.492.492 0 110-.984h18.126V28.505L25.96 54.066h4.141a.492.492 0 110 .985h-5.33a.494.494 0 01-.348-.84l27.242-27.242a.493.493 0 01.84.348V54.56c0 .272-.22.492-.492.492zm-5.153-27.343a.493.493 0 01-.445-.703.491.491 0 01.803-.16l.007.007a.493.493 0 010 .696l-.017.016a.491.491 0 01-.348.144z" fill="#fff"/><path d="M27.112 46.814a2.034 2.034 0 01-1.444-.597l-1.534-1.534a2.044 2.044 0 010-2.887l1.367-1.367a.493.493 0 01.696.696l-1.367 1.367a1.058 1.058 0 000 1.495l1.534 1.534a1.058 1.058 0 001.495 0l17.482-17.482a1.833 1.833 0 01-1.235-1.794 1.835 1.835 0 01-1.795-1.235L27.58 39.743a.493.493 0 01-.696-.696l15.67-15.67a.491.491 0 01.767.605.841.841 0 00.126 1.034.833.833 0 00.632.247.972.972 0 011.011 1.011.834.834 0 00.247.633c.276.275.7.327 1.033.126a.492.492 0 01.603.77L28.555 46.216c-.398.398-.92.597-1.443.597z" fill="#fff"/><path d="M27.712 43.132a.493.493 0 01-.348-.84L41.37 28.286a.493.493 0 01.696.696L28.06 42.988a.49.49 0 01-.348.144zM42.89 27.955a.486.486 0 01-.273-.083.498.498 0 01-.136-.683.525.525 0 01.136-.136.467.467 0 01.177-.073.494.494 0 01.588.482.495.495 0 01-.492.493z" fill="#fff"/><path d="M27.112 46.857c-.496 0-.993-.19-1.371-.567l-1.68-1.68a1.94 1.94 0 010-2.74l1.44-1.44a.493.493 0 01.696 0l3.725 3.724a.493.493 0 010 .696l-1.44 1.44a1.933 1.933 0 01-1.37.567zm-.675-1.263a.955.955 0 001.35 0l1.091-1.092-3.029-3.03-1.092 1.093a.955.955 0 000 1.349l1.68 1.68zm19.495-17.456a1.832 1.832 0 01-1.826-1.892 1.836 1.836 0 01-1.356-.535 1.824 1.824 0 01-.192-2.36.966.966 0 01.591-.382l5.595-1.991a.491.491 0 01.63.63l-1.993 5.597a.965.965 0 01-.082.236.968.968 0 01-.293.35 1.84 1.84 0 01-1.074.347zm-1.814-2.877a.975.975 0 01.972 1.013.842.842 0 001.28.759c.013-.01.03-.02.05-.033a.489.489 0 01.022-.09l1.658-4.657-4.659 1.658a.478.478 0 01-.088.023.84.84 0 00.093 1.083.836.836 0 00.632.246c.013-.002.026-.002.04-.002z" fill="#fff"/><path d="M47.888 24.806a.49.49 0 01-.348-.144l-1.85-1.85a.493.493 0 01.696-.696l1.85 1.85a.493.493 0 01-.348.84z" fill="#fff"/></svg>