<svg width="76" height="76" fill="none" xmlns="http://www.w3.org/2000/svg"><rect width="76" height="76" rx="20" fill="#254152"/><path d="M38.258 50.112a.492.492 0 110-.985 7.23 7.23 0 005.147-2.132l3.926-3.926a2.007 2.007 0 000-2.836l-1.265-1.265a.493.493 0 01.696-.696l1.265 1.265a2.993 2.993 0 010 4.228l-3.926 3.926a8.212 8.212 0 01-5.843 2.42zm6.968-12.189a.497.497 0 01-.483-.395.494.494 0 01.134-.445.498.498 0 01.697 0 .526.526 0 01.106.16.488.488 0 01-.106.536.481.481 0 01-.348.144z" fill="#fff"/><path d="M36.547 51.82a.49.49 0 01-.348-.144l-5.402-5.402a.493.493 0 010-.696l1.864-1.864v-3.569c0-.384.15-.745.421-1.016l3.164-3.164a1.428 1.428 0 011.017-.421h1.38l.582-.582a2.992 2.992 0 014.228 0l1.05 1.05a.493.493 0 01-.697.696l-1.05-1.05a2.006 2.006 0 00-2.744-.085l-.006.006a1.87 1.87 0 00-.086.08l-.725.726a.492.492 0 01-.348.144h-1.584a.449.449 0 00-.32.133l-3.164 3.164a.449.449 0 00-.133.32v3.772a.49.49 0 01-.145.348l-1.66 1.66 5.054 5.054a.493.493 0 01-.348.84z" fill="#fff"/><path d="M35.442 55.051a.49.49 0 01-.348-.144l-7.683-7.682a.493.493 0 010-.696l2.169-2.17a.493.493 0 01.696 0l7.683 7.684a.493.493 0 010 .696l-2.17 2.17a.493.493 0 01-.347.142zm-6.987-8.174l6.987 6.987 1.473-1.473-6.987-6.987-1.473 1.473zm.215-16.38a.496.496 0 01-.491-.492.496.496 0 01.492-.492.495.495 0 01.492.492.496.496 0 01-.492.492zm3.705 6.858a.49.49 0 01-.348-.144l-1.53-1.53a.493.493 0 010-.695l5.9-5.9a.493.493 0 01.696 0l1.53 1.53a.493.493 0 010 .696l-5.9 5.899a.49.49 0 01-.348.144zm-.834-2.021l.833.833 5.203-5.203-.833-.833-5.203 5.203z" fill="#fff"/><path d="M35.59 37.809a.49.49 0 01-.336-.133L33.36 35.9a.493.493 0 01-.012-.706l3.257-3.257a.493.493 0 01.696.696l-2.897 2.898 1.176 1.101.667-.667a1.427 1.427 0 011.016-.421h1.381l.355-.355-1.274-1.361a.492.492 0 01.717-.673l1.604 1.713a.49.49 0 01-.04.71 1.426 1.426 0 00-.085.08l-.725.725a.492.492 0 01-.349.145h-1.584a.449.449 0 00-.32.133l-1.004 1.004a.493.493 0 01-.348.144zm13.045 12.215a.49.49 0 01-.336-.133l-2.248-2.106a.491.491 0 11.672-.718l1.902 1.78 1.633-1.632-2.747-2.934-2.18 2.18a.493.493 0 01-.696-.697l2.54-2.539a.494.494 0 01.706.011l3.42 3.654a.492.492 0 01-.012.684l-2.306 2.306a.487.487 0 01-.348.144zM26.62 40.05a.493.493 0 01-.349-.145l-.015-.016a5.78 5.78 0 010-8.166l.966-.965a.493.493 0 01.696.696l-.965.965a4.797 4.797 0 00-.317 6.426l10.977-10.977-3.055-3.055-4.367 4.367a.493.493 0 01-.696-.696l4.715-4.715a.493.493 0 01.696 0l3.752 3.751a.492.492 0 010 .696l-11.69 11.69a.492.492 0 01-.348.144z" fill="#fff"/><path d="M39.986 30.035a.493.493 0 01-.349-.144l-6.894-6.895a.493.493 0 010-.696l.63-.63a2.47 2.47 0 013.49 0l4.101 4.102a2.45 2.45 0 01.723 1.744 2.45 2.45 0 01-.723 1.745l-.63.63a.492.492 0 01-.349.144zm-6.2-7.387l6.2 6.2.282-.284c.28-.28.435-.652.435-1.048a1.47 1.47 0 00-.435-1.048l-4.102-4.102a1.485 1.485 0 00-2.097 0l-.282.282z" fill="#fff"/></svg>