<svg width="76" height="76" fill="none" xmlns="http://www.w3.org/2000/svg"><rect width="76" height="76" rx="20" fill="#254152"/><path d="M50.913 42.236H40.691a.492.492 0 110-.984h9.73v-2.897h-9.237v.84a.492.492 0 11-.985 0v-1.332c0-.272.22-.492.492-.492h10.222c.272 0 .492.22.492.492v3.88c0 .272-.22.493-.492.493zm-15.605 0H25.086a.492.492 0 01-.492-.492v-3.88c0-.273.22-.493.492-.493h3.906a.492.492 0 110 .984h-3.414v2.897h9.237v-2.897h-2.688a.492.492 0 110-.984h3.18c.272 0 .492.22.492.492v3.88a.492.492 0 01-.491.493zm15.605 6.476H40.691a.492.492 0 01-.492-.493v-3.88c0-.272.22-.492.492-.492h10.222c.272 0 .492.22.492.492v3.88c0 .273-.22.493-.492.493zm-9.73-.985h9.237v-2.896h-9.236v2.896zm-5.875.985a.492.492 0 01-.492-.493v-3.388h-9.238v2.896H33.1a.492.492 0 110 .985h-8.014a.492.492 0 01-.492-.493v-3.88c0-.272.22-.492.492-.492h10.221c.272 0 .492.22.492.492v3.88a.491.491 0 01-.491.493z" fill="#fff"/><path d="M50.913 51.946H25.086a.492.492 0 01-.492-.492V35.776c0-.156.074-.303.2-.396a8.17 8.17 0 003.3-6.545v-4.288c0-.272.22-.492.493-.492h3.982c.272 0 .492.22.492.492a4.945 4.945 0 004.94 4.94 4.954 4.954 0 004.493-2.887.492.492 0 11.895.41A5.943 5.943 0 0138 30.47a5.931 5.931 0 01-5.903-5.431h-3.018v3.796a9.16 9.16 0 01-3.5 7.184v14.943H50.42V36.02a9.178 9.178 0 01-2.523-3.076 9.177 9.177 0 01-.977-4.108v-3.797h-3.49a.492.492 0 110-.984h3.982c.272 0 .492.22.492.492v4.288a8.19 8.19 0 00.872 3.666 8.191 8.191 0 002.43 2.879c.124.093.199.24.199.396v15.678a.493.493 0 01-.493.492z" fill="#fff"/><path d="M38 51.946a.492.492 0 01-.492-.492V29.977a.492.492 0 11.984 0v21.477c0 .272-.22.492-.492.492zm-7.477-13.59a.495.495 0 01-.454-.68.495.495 0 01.358-.295.492.492 0 11.096.975zm13.933-4.128h-3.031a.492.492 0 110-.984h3.031a.492.492 0 110 .984zm-12.851 0a.495.495 0 01-.492-.492.492.492 0 11.492.492zm1.865 0a.494.494 0 01-.274-.9.491.491 0 11.274.9zm1.838 0a.494.494 0 01-.274-.901.488.488 0 01.622.06.495.495 0 010 .697.526.526 0 01-.16.106.476.476 0 01-.188.038z" fill="#fff"/></svg>