<svg width="76" height="76" fill="none" xmlns="http://www.w3.org/2000/svg"><rect width="76" height="76" rx="20" fill="#254152"/><path d="M28.515 48.5a.492.492 0 01-.492-.492 3.048 3.048 0 00-3.045-3.044 3.048 3.048 0 00-3.044 3.044.492.492 0 11-.985 0V27.992a4.033 4.033 0 014.03-4.03 4.033 4.033 0 014.028 4.03v20.016c0 .273-.22.493-.492.493zm-3.537-4.52a4.02 4.02 0 013.045 1.392v-17.38a3.048 3.048 0 00-3.045-3.045 3.048 3.048 0 00-3.044 3.045v17.38a4.02 4.02 0 013.044-1.392z" fill="#fff"/><path d="M54.559 52.038a.492.492 0 01-.493-.492V28.483H29.007V48.01a.492.492 0 11-.984 0 3.048 3.048 0 00-3.045-3.045 3.048 3.048 0 00-3.044 3.045 3.048 3.048 0 003.044 3.044h26.766a.492.492 0 110 .985H24.978a4.034 4.034 0 01-4.029-4.03 4.034 4.034 0 014.03-4.028 4.02 4.02 0 013.044 1.393v-17.38c0-.273.22-.493.492-.493h26.044c.272 0 .492.22.492.492v23.553c0 .273-.22.493-.492.493z" fill="#fff"/><path d="M35.982 36.571h-4.811a.492.492 0 01-.492-.492v-4.811c0-.273.22-.493.492-.493h4.811c.273 0 .493.22.493.493v4.811a.493.493 0 01-.493.492zm-4.319-.984h3.827V31.76h-3.827v3.827zm8.484 12.941h-3.644a.492.492 0 110-.984h3.152v-7.992h-7.992v7.992h.657a.492.492 0 110 .984h-1.15a.492.492 0 01-.491-.492V39.06c0-.273.22-.493.492-.493h8.976c.272 0 .492.22.492.493v8.976c0 .271-.22.492-.492.492z" fill="#fff"/><path d="M34.178 48.528a.495.495 0 01-.492-.492.517.517 0 01.083-.273.492.492 0 11.41.766zm16.525-11.957H38a.492.492 0 01-.492-.492v-4.811c0-.273.22-.493.492-.493h6.216a.492.492 0 110 .985h-5.724v3.827h11.719V31.76h-2.273a.492.492 0 110-.985h2.765c.272 0 .492.22.492.493v4.811c0 .272-.22.492-.492.492z" fill="#fff"/><path d="M45.964 31.76a.494.494 0 01-.274-.9.515.515 0 01.37-.073.515.515 0 01.176.073.481.481 0 01.182.22.51.51 0 01.028.285.55.55 0 01-.073.177.487.487 0 01-.41.219zm-.073 17h-2.693a.492.492 0 01-.492-.492V39.06c0-.273.22-.493.492-.493h2.693c.272 0 .492.22.492.493v9.21c0 .27-.22.49-.492.49zm-2.2-.984H45.4v-8.224h-1.71v8.224zm7.012.984H48.01a.492.492 0 01-.492-.492V39.06c0-.273.22-.493.492-.493h2.693c.272 0 .492.22.492.493v9.21c0 .27-.22.49-.492.49zm-2.201-.984h1.709v-8.224h-1.709v8.224zM24.768 42.14a.492.492 0 01-.493-.493V28.53a.492.492 0 11.985 0v13.117a.492.492 0 01-.492.492zm0-14.67a.495.495 0 01-.493-.492.495.495 0 01.589-.484.547.547 0 01.176.074.495.495 0 01.075.757.488.488 0 01-.347.145z" fill="#fff"/></svg>