<svg width="76" height="76" fill="none" xmlns="http://www.w3.org/2000/svg"><rect width="76" height="76" rx="20" fill="#254152"/><path d="M31.06 35.906a.49.49 0 01-.347-.144l-1.883-1.883h-3.697a.492.492 0 01-.348-.144l-.774-.774a.493.493 0 01.696-.696l.63.63h3.697c.13 0 .256.052.348.144l1.679 1.679 2.42-2.42a1.44 1.44 0 011.027-.426h1.407l.155-.155a.492.492 0 11.697.695l-.3.3a.492.492 0 01-.348.145h-1.61a.464.464 0 00-.332.137l-2.768 2.768a.493.493 0 01-.348.144zm-8.988-5.088a.49.49 0 01-.348-.144l-.358-.357a.492.492 0 01-.144-.349v-4.835c0-.131.052-.257.145-.35l.077-.075a.493.493 0 01.695.001l4.472 4.473 2.57-2.57-4.473-4.473a.493.493 0 010-.697l.077-.076a.492.492 0 01.348-.144h4.835c.13 0 .256.052.348.144l3.418 3.42a.492.492 0 01.144.347v3.697l.962.96a.493.493 0 01-.696.697l-1.106-1.106a.492.492 0 01-.144-.348v-3.696l-3.13-3.13h-3.596l4.057 4.057a.493.493 0 010 .696l-3.266 3.267a.492.492 0 01-.696 0l-4.057-4.057v3.595l.214.213a.493.493 0 01-.348.84zm1.105 1.105a.495.495 0 01-.348-.84.496.496 0 01.83.252.495.495 0 01-.134.444.525.525 0 01-.16.106.467.467 0 01-.188.038zm27.689 22.855H46.03a.492.492 0 01-.348-.145l-3.418-3.418a.493.493 0 01-.145-.348V47.17l-.431-.431a.493.493 0 01.696-.697l.576.576a.492.492 0 01.144.348v3.697l3.13 3.13h3.595l-4.057-4.057a.492.492 0 010-.696l3.267-3.266a.493.493 0 01.696 0l4.056 4.057v-3.596l-3.13-3.13h-3.696a.492.492 0 01-.348-.144l-1.956-1.955-3.207 3.206c-.285.286-.591.55-.91.788a.493.493 0 01-.589-.788c.28-.21.55-.443.802-.696l3.543-3.542.01-.01.012-.011a.492.492 0 01.686.01l2.16 2.159h3.696c.13 0 .255.052.348.144l3.417 3.418a.492.492 0 01.145.348v4.835c0 .13-.052.256-.144.348l-.077.076a.492.492 0 01-.696 0l-4.472-4.472-2.57 2.57 4.472 4.473a.494.494 0 01-.002.698l-.076.076a.483.483 0 01-.344.142z" fill="#fff"/><path d="M35.52 46.67a.492.492 0 110-.983 7.462 7.462 0 004.437-1.476c.28-.21.55-.443.803-.696l3.542-3.542a.134.134 0 01.01-.01l.008-.006.434-.434c.386-.387.6-.9.6-1.448a2.04 2.04 0 00-.6-1.448l-1.288-1.287a.493.493 0 01.696-.696l1.288 1.287c.572.573.888 1.334.888 2.144s-.316 1.572-.888 2.144l-.439.439-.01.01-.008.006-3.537 3.537c-.286.286-.591.55-.91.789a8.447 8.447 0 01-5.026 1.67zm7.086-12.394a.498.498 0 01-.454-.304.495.495 0 01.106-.536.496.496 0 01.697 0 .495.495 0 01-.075.757.491.491 0 01-.274.083z" fill="#fff"/><path d="M33.781 48.409a.49.49 0 01-.348-.144L27.94 42.77a.493.493 0 010-.697l1.898-1.898v-3.633c0-.383.156-.757.426-1.027l3.219-3.218a1.44 1.44 0 011.027-.426h1.407l.594-.595a3.034 3.034 0 014.288 0l1.068 1.069a.493.493 0 01-.696.696l-1.069-1.069a2.048 2.048 0 00-2.801-.086l-.007.005a1.574 1.574 0 00-.09.085l-.735.735a.492.492 0 01-.348.144H34.51a.464.464 0 00-.331.138l-3.218 3.218a.47.47 0 00-.138.331v3.837c0 .13-.052.256-.144.348l-1.695 1.694 5.146 5.147a.493.493 0 01-.348.84z" fill="#fff"/><path d="M32.655 51.697a.492.492 0 01-.348-.144l-7.813-7.814a.493.493 0 010-.696l2.206-2.207a.493.493 0 01.696 0l7.814 7.814a.493.493 0 010 .696l-2.206 2.207a.492.492 0 01-.349.144zm-7.117-8.306l7.117 7.117 1.51-1.51-7.118-7.117-1.51 1.51z" fill="#fff"/></svg>