<svg width="20" height="18" fill="none" xmlns="http://www.w3.org/2000/svg"><path fill-rule="evenodd" clip-rule="evenodd" d="M15.32 16.983a.99.99 0 00.923.12.967.967 0 00.603-.7C17.57 13 19.327 4.387 19.986 1.29a.65.65 0 00-.216-.632.667.667 0 00-.665-.116C15.611 1.835 4.85 5.872.452 7.5A.689.689 0 000 8.166a.69.69 0 00.494.637 354.8 354.8 0 014.562 1.41s1.21 3.655 1.841 5.513a.73.73 0 00.502.48.722.722 0 00.676-.172l2.58-2.436s2.977 2.182 4.665 3.385zM6.145 9.752l1.4 4.615.31-2.923 8.488-7.655a.231.231 0 00.027-.314.237.237 0 00-.313-.053l-9.912 6.33z" fill="#fff"/></svg>