<svg width="20" height="12" fill="none" xmlns="http://www.w3.org/2000/svg"><path d="M10.968 11.829c.508 0 .715-.339.71-.763-.026-1.597.595-2.457 1.715-1.337 1.24 1.24 1.497 2.1 3.003 2.1h2.666c.674 0 .939-.217.939-.557 0-.72-1.184-1.988-2.188-2.92-1.405-1.304-1.47-1.335-.26-2.905C19.052 3.497 21.016 1 19.28 1h-3.318c-.643 0-.69.363-.919.903-.829 1.956-2.405 4.489-3.003 4.101C11.414 5.6 11.7 4 11.748 1.62c.013-.628.01-1.059-.95-1.282A6.725 6.725 0 009.29.167c-1.894 0-3.2.794-2.458.932 1.309.245 1.183 3.077.878 4.3-.532 2.13-2.53-1.686-3.362-3.587C4.147 1.355 4.085 1 3.368 1H.656C.246 1 0 1.134 0 1.43c0 .502 2.467 5.6 4.822 8.142 2.296 2.48 4.566 2.257 6.146 2.257z" fill="#fff"/></svg>